<?xml version="1.0" encoding="UTF-8" standalone="no"?>
<svg
   xmlns:ooo="http://xml.openoffice.org/svg/export"
   xmlns:dc="http://purl.org/dc/elements/1.1/"
   xmlns:cc="http://creativecommons.org/ns#"
   xmlns:rdf="http://www.w3.org/1999/02/22-rdf-syntax-ns#"
   xmlns:svg="http://www.w3.org/2000/svg"
   xmlns="http://www.w3.org/2000/svg"
   xmlns:sodipodi="http://sodipodi.sourceforge.net/DTD/sodipodi-0.dtd"
   xmlns:inkscape="http://www.inkscape.org/namespaces/inkscape"
   version="1.2"
   width="55.895275mm"
   height="41.683201mm"
   viewBox="0 0 5589.5275 4168.3201"
   preserveAspectRatio="xMidYMid"
   fill-rule="evenodd"
   stroke-width="28.222"
   stroke-linejoin="round"
   xml:space="preserve"
   id="svg135"
   sodipodi:docname="drinks.svg"
   inkscape:version="1.0.2 (1.0.2+r75+1)"><metadata
   id="metadata139"><rdf:RDF><cc:Work
       rdf:about=""><dc:format>image/svg+xml</dc:format><dc:type
         rdf:resource="http://purl.org/dc/dcmitype/StillImage" /><dc:title></dc:title></cc:Work></rdf:RDF></metadata><sodipodi:namedview
   pagecolor="#ffffff"
   bordercolor="#666666"
   borderopacity="1"
   objecttolerance="10"
   gridtolerance="10"
   guidetolerance="10"
   inkscape:pageopacity="0"
   inkscape:pageshadow="2"
   inkscape:window-width="1366"
   inkscape:window-height="714"
   id="namedview137"
   showgrid="false"
   fit-margin-top="0"
   fit-margin-left="0"
   fit-margin-right="0"
   fit-margin-bottom="0"
   inkscape:zoom="0.49887767"
   inkscape:cx="495.54308"
   inkscape:cy="112.27919"
   inkscape:window-x="0"
   inkscape:window-y="25"
   inkscape:window-maximized="1"
   inkscape:current-layer="svg135" />
 <defs
   class="ClipPathGroup"
   id="defs8">
  <clipPath
   id="presentation_clip_path"
   clipPathUnits="userSpaceOnUse">
   <rect
   x="0"
   y="0"
   width="21000"
   height="29700"
   id="rect2" />
  </clipPath>
  <clipPath
   id="presentation_clip_path_shrink"
   clipPathUnits="userSpaceOnUse">
   <rect
   x="21"
   y="29"
   width="20958"
   height="29641"
   id="rect5" />
  </clipPath>
 
  
 </defs>
 <defs
   class="TextShapeIndex"
   id="defs12">
  <g
   ooo:slide="id1"
   ooo:id-list="id3 id4 id5 id6 id7 id8 id9 id10"
   id="g10" />
 </defs>
 <defs
   class="EmbeddedBulletChars"
   id="defs44">
  <g
   id="bullet-char-template-57356"
   transform="matrix(4.8828125e-4,0,0,-4.8828125e-4,0,0)">
   <path
   d="M 580,1141 1163,571 580,0 -4,571 Z"
   id="path14" />
  </g>
  <g
   id="bullet-char-template-57354"
   transform="matrix(4.8828125e-4,0,0,-4.8828125e-4,0,0)">
   <path
   d="M 8,1128 H 1137 V 0 H 8 Z"
   id="path17" />
  </g>
  <g
   id="bullet-char-template-10146"
   transform="matrix(4.8828125e-4,0,0,-4.8828125e-4,0,0)">
   <path
   d="M 174,0 602,739 174,1481 1456,739 Z M 1358,739 309,1346 659,739 Z"
   id="path20" />
  </g>
  <g
   id="bullet-char-template-10132"
   transform="matrix(4.8828125e-4,0,0,-4.8828125e-4,0,0)">
   <path
   d="M 2015,739 1276,0 H 717 l 543,543 H 174 v 393 h 1086 l -543,545 h 557 z"
   id="path23" />
  </g>
  <g
   id="bullet-char-template-10007"
   transform="matrix(4.8828125e-4,0,0,-4.8828125e-4,0,0)">
   <path
   d="m 0,-2 c -7,16 -16,29 -25,39 l 381,530 c -94,256 -141,385 -141,387 0,25 13,38 40,38 9,0 21,-2 34,-5 21,4 42,12 65,25 l 27,-13 111,-251 280,301 64,-25 24,25 c 21,-10 41,-24 62,-43 C 886,937 835,863 770,784 769,783 710,716 594,584 L 774,223 c 0,-27 -21,-55 -63,-84 l 16,-20 C 717,90 699,76 672,76 641,76 570,178 457,381 L 164,-76 c -22,-34 -53,-51 -92,-51 -42,0 -63,17 -64,51 -7,9 -10,24 -10,44 0,9 1,19 2,30 z"
   id="path26" />
  </g>
  <g
   id="bullet-char-template-10004"
   transform="matrix(4.8828125e-4,0,0,-4.8828125e-4,0,0)">
   <path
   d="M 285,-33 C 182,-33 111,30 74,156 52,228 41,333 41,471 c 0,78 14,145 41,201 34,71 87,106 158,106 53,0 88,-31 106,-94 l 23,-176 c 8,-64 28,-97 59,-98 l 735,706 c 11,11 33,17 66,17 42,0 63,-15 63,-46 V 965 c 0,-36 -10,-64 -30,-84 L 442,47 C 390,-6 338,-33 285,-33 Z"
   id="path29" />
  </g>
  <g
   id="bullet-char-template-9679"
   transform="matrix(4.8828125e-4,0,0,-4.8828125e-4,0,0)">
   <path
   d="M 813,0 C 632,0 489,54 383,161 276,268 223,411 223,592 c 0,181 53,324 160,431 106,107 249,161 430,161 179,0 323,-54 432,-161 108,-107 162,-251 162,-431 0,-180 -54,-324 -162,-431 C 1136,54 992,0 813,0 Z"
   id="path32" />
  </g>
  <g
   id="bullet-char-template-8226"
   transform="matrix(4.8828125e-4,0,0,-4.8828125e-4,0,0)">
   <path
   d="m 346,457 c -73,0 -137,26 -191,78 -54,51 -81,114 -81,188 0,73 27,136 81,188 54,52 118,78 191,78 73,0 134,-26 185,-79 51,-51 77,-114 77,-187 0,-75 -25,-137 -76,-188 -50,-52 -112,-78 -186,-78 z"
   id="path35" />
  </g>
  <g
   id="bullet-char-template-8211"
   transform="matrix(4.8828125e-4,0,0,-4.8828125e-4,0,0)">
   <path
   d="M -4,459 H 1135 V 606 H -4 Z"
   id="path38" />
  </g>
  <g
   id="bullet-char-template-61548"
   transform="matrix(4.8828125e-4,0,0,-4.8828125e-4,0,0)">
   <path
   d="m 173,740 c 0,163 58,303 173,419 116,115 255,173 419,173 163,0 302,-58 418,-173 116,-116 174,-256 174,-419 0,-163 -58,-303 -174,-418 C 1067,206 928,148 765,148 601,148 462,206 346,322 231,437 173,577 173,740 Z"
   id="path41" />
  </g>
 </defs>
 <g
   id="g49"
   transform="translate(-5556.2559,-11879.28)">
  <g
   id="id2"
   class="Master_Slide">
   <g
   id="bg-id2"
   class="Background" />
   <g
   id="bo-id2"
   class="BackgroundObjects" />
  </g>
 </g>
 <g
   id="g131"
   transform="translate(-5556.2559,-11879.28)">
   <g
   id="container-id1">
    <g
   id="id1"
   class="Slide"
   clip-path="url(#presentation_clip_path)">
     <g
   class="Page"
   id="g127">
      <g
   class="Group"
   id="g125">
       <g
   class="com.sun.star.drawing.CustomShape"
   id="g58">
        <g
   id="id3">
         <rect
   class="BoundingBox"
   stroke="none"
   fill="none"
   x="5569"
   y="15435"
   width="1261"
   height="600"
   id="rect51" />
         <path
   fill="#729fcf"
   stroke="none"
   d="m 6825,15898 c -12,44 -52,79 -117,103 -64,24 -152,35 -252,32 -101,-3 -212,-20 -322,-48 -110,-29 -215,-69 -304,-115 -89,-47 -160,-99 -205,-152 -45,-52 -63,-103 -51,-147 11,-43 51,-79 116,-103 65,-23 152,-34 253,-32 101,3 212,20 322,48 109,29 214,69 304,116 89,46 160,99 205,151 45,52 62,103 51,147 z"
   id="path53" />
         <path
   fill="none"
   stroke="#3465a4"
   d="m 6825,15898 c -12,44 -52,79 -117,103 -64,24 -152,35 -252,32 -101,-3 -212,-20 -322,-48 -110,-29 -215,-69 -304,-115 -89,-47 -160,-99 -205,-152 -45,-52 -63,-103 -51,-147 11,-43 51,-79 116,-103 65,-23 152,-34 253,-32 101,3 212,20 322,48 109,29 214,69 304,116 89,46 160,99 205,151 45,52 62,103 51,147 z"
   id="path55" />
        </g>
       </g>
       <g
   class="com.sun.star.drawing.ClosedBezierShape"
   id="g67">
        <g
   id="id4">
         <rect
   class="BoundingBox"
   stroke="none"
   fill="none"
   x="5879"
   y="12341"
   width="2217"
   height="2565"
   id="rect60" />
         <path
   fill="#729fcf"
   stroke="none"
   d="m 5885,13306 c -19,433 22,808 118,1086 96,278 244,450 429,498 185,48 401,-28 625,-223 225,-194 451,-499 655,-883 144,-272 273,-576 382,-897 l -2084,-545 c -69,332 -112,659 -125,964 z"
   id="path62" />
         <path
   fill="none"
   stroke="#3465a4"
   d="m 5885,13306 c -19,433 22,808 118,1086 96,278 244,450 429,498 185,48 401,-28 625,-223 225,-194 451,-499 655,-883 144,-272 273,-576 382,-897 l -2084,-545 c -69,332 -112,659 -125,964 z"
   id="path64" />
        </g>
       </g>
       <g
   class="com.sun.star.drawing.CustomShape"
   id="g76">
        <g
   id="id5">
         <rect
   class="BoundingBox"
   stroke="none"
   fill="none"
   x="6127"
   y="14867"
   width="384"
   height="900"
   id="rect69" />
         <path
   fill="#729fcf"
   stroke="none"
   d="m 6207,15745 -79,-21 224,-856 157,41 -224,856 z"
   id="path71" />
         <path
   fill="none"
   stroke="#3465a4"
   d="m 6207,15745 -79,-21 224,-856 157,41 -224,856 z"
   id="path73" />
        </g>
       </g>
       <g
   class="com.sun.star.drawing.CustomShape"
   id="g85">
        <g
   id="id6">
         <rect
   class="BoundingBox"
   stroke="none"
   fill="none"
   x="5956"
   y="12192"
   width="2143"
   height="830"
   id="rect78" />
         <path
   fill="#729fcf"
   stroke="none"
   d="m 8094,12885 c 14,-53 -21,-119 -103,-190 -82,-70 -206,-144 -362,-213 -155,-70 -335,-132 -523,-181 -187,-49 -375,-83 -544,-98 -169,-16 -314,-13 -419,9 -106,22 -169,62 -183,116 -14,53 22,119 103,190 82,71 207,144 362,213 155,70 335,132 523,181 187,49 375,83 544,98 169,16 314,13 420,-9 105,-22 168,-62 182,-116 z"
   id="path80" />
         <path
   fill="none"
   stroke="#3465a4"
   d="m 8094,12885 c 14,-53 -21,-119 -103,-190 -82,-70 -206,-144 -362,-213 -155,-70 -335,-132 -523,-181 -187,-49 -375,-83 -544,-98 -169,-16 -314,-13 -419,9 -106,22 -169,62 -183,116 -14,53 22,119 103,190 82,71 207,144 362,213 155,70 335,132 523,181 187,49 375,83 544,98 169,16 314,13 420,-9 105,-22 168,-62 182,-116 z"
   id="path82" />
        </g>
       </g>
       <g
   class="Group"
   id="g123">
        <g
   class="com.sun.star.drawing.CustomShape"
   id="g94">
         <g
   id="id7">
          <rect
   class="BoundingBox"
   stroke="none"
   fill="none"
   x="10001"
   y="14849"
   width="1133"
   height="817"
   id="rect87" />
          <path
   fill="#729fcf"
   stroke="none"
   d="m 11115,14914 c 24,39 22,92 -5,156 -27,63 -79,134 -150,205 -71,72 -160,141 -256,201 -96,60 -197,109 -292,142 -96,33 -182,49 -251,46 -69,-4 -118,-26 -142,-64 -25,-38 -23,-92 4,-155 27,-64 79,-135 151,-206 71,-71 159,-141 255,-201 96,-60 197,-109 293,-142 95,-33 182,-48 251,-45 69,3 118,25 142,63 z"
   id="path89" />
          <path
   fill="none"
   stroke="#3465a4"
   d="m 11115,14914 c 24,39 22,92 -5,156 -27,63 -79,134 -150,205 -71,72 -160,141 -256,201 -96,60 -197,109 -292,142 -96,33 -182,49 -251,46 -69,-4 -118,-26 -142,-64 -25,-38 -23,-92 4,-155 27,-64 79,-135 151,-206 71,-71 159,-141 255,-201 96,-60 197,-109 293,-142 95,-33 182,-48 251,-45 69,3 118,25 142,63 z"
   id="path91" />
         </g>
        </g>
        <g
   class="com.sun.star.drawing.ClosedBezierShape"
   id="g103">
         <g
   id="id8">
          <rect
   class="BoundingBox"
   stroke="none"
   fill="none"
   x="7975"
   y="11952"
   width="2415"
   height="2657"
   id="rect96" />
          <path
   fill="#729fcf"
   stroke="none"
   d="m 8591,13848 c 302,311 603,539 871,660 268,121 494,131 656,29 163,-101 255,-311 268,-607 13,-297 -54,-670 -194,-1083 -98,-291 -231,-594 -390,-894 l -1826,1143 c 194,278 402,533 615,752 z"
   id="path98" />
          <path
   fill="none"
   stroke="#3465a4"
   d="m 8591,13848 c 302,311 603,539 871,660 268,121 494,131 656,29 163,-101 255,-311 268,-607 13,-297 -54,-670 -194,-1083 -98,-291 -231,-594 -390,-894 l -1826,1143 c 194,278 402,533 615,752 z"
   id="path100" />
         </g>
        </g>
        <g
   class="com.sun.star.drawing.CustomShape"
   id="g112">
         <g
   id="id9">
          <rect
   class="BoundingBox"
   stroke="none"
   fill="none"
   x="10047"
   y="14495"
   width="608"
   height="839"
   id="rect105" />
          <path
   fill="#729fcf"
   stroke="none"
   d="m 10585,15289 -69,43 -468,-750 137,-86 468,750 z"
   id="path107" />
          <path
   fill="none"
   stroke="#3465a4"
   d="m 10585,15289 -69,43 -468,-750 137,-86 468,750 z"
   id="path109" />
         </g>
        </g>
        <g
   class="com.sun.star.drawing.CustomShape"
   id="g121">
         <g
   id="id10">
          <rect
   class="BoundingBox"
   stroke="none"
   fill="none"
   x="7917"
   y="11892"
   width="1902"
   height="1289"
   id="rect114" />
          <path
   fill="#729fcf"
   stroke="none"
   d="m 9802,11952 c -29,-47 -101,-66 -209,-56 -107,11 -247,51 -403,116 -157,66 -326,154 -490,257 -164,102 -318,216 -445,328 -128,112 -224,220 -281,312 -57,92 -71,165 -42,212 30,47 102,66 209,55 108,-10 247,-50 404,-116 156,-65 325,-154 489,-256 165,-103 318,-216 445,-328 128,-113 225,-220 281,-312 57,-92 71,-165 42,-212 z"
   id="path116" />
          <path
   fill="none"
   stroke="#3465a4"
   d="m 9802,11952 c -29,-47 -101,-66 -209,-56 -107,11 -247,51 -403,116 -157,66 -326,154 -490,257 -164,102 -318,216 -445,328 -128,112 -224,220 -281,312 -57,92 -71,165 -42,212 30,47 102,66 209,55 108,-10 247,-50 404,-116 156,-65 325,-154 489,-256 165,-103 318,-216 445,-328 128,-113 225,-220 281,-312 57,-92 71,-165 42,-212 z"
   id="path118" />
         </g>
        </g>
       </g>
      </g>
     </g>
    </g>
   </g>
  </g>
</svg>
