<?xml version="1.0" encoding="UTF-8" standalone="no"?>
<svg
   xmlns:ooo="http://xml.openoffice.org/svg/export"
   xmlns:dc="http://purl.org/dc/elements/1.1/"
   xmlns:cc="http://creativecommons.org/ns#"
   xmlns:rdf="http://www.w3.org/1999/02/22-rdf-syntax-ns#"
   xmlns:svg="http://www.w3.org/2000/svg"
   xmlns="http://www.w3.org/2000/svg"
   xmlns:sodipodi="http://sodipodi.sourceforge.net/DTD/sodipodi-0.dtd"
   xmlns:inkscape="http://www.inkscape.org/namespaces/inkscape"
   version="1.2"
   width="131.00728mm"
   height="131.30038mm"
   viewBox="0 0 13100.728 13130.038"
   preserveAspectRatio="xMidYMid"
   fill-rule="evenodd"
   stroke-width="28.222"
   stroke-linejoin="round"
   xml:space="preserve"
   id="svg179"
   sodipodi:docname="spinners.svg"
   inkscape:version="1.0.2 (1.0.2+r75+1)"><metadata
   id="metadata183"><rdf:RDF><cc:Work
       rdf:about=""><dc:format>image/svg+xml</dc:format><dc:type
         rdf:resource="http://purl.org/dc/dcmitype/StillImage" /><dc:title></dc:title></cc:Work></rdf:RDF></metadata><sodipodi:namedview
   pagecolor="#ffffff"
   bordercolor="#666666"
   borderopacity="1"
   objecttolerance="10"
   gridtolerance="10"
   guidetolerance="10"
   inkscape:pageopacity="0"
   inkscape:pageshadow="2"
   inkscape:window-width="739"
   inkscape:window-height="480"
   id="namedview181"
   showgrid="false"
   fit-margin-top="0"
   fit-margin-left="0"
   fit-margin-right="0"
   fit-margin-bottom="0"
   inkscape:zoom="0.49887767"
   inkscape:cx="619.04321"
   inkscape:cy="384.71391"
   inkscape:window-x="0"
   inkscape:window-y="25"
   inkscape:window-maximized="0"
   inkscape:current-layer="svg179"
   inkscape:document-rotation="0" />
 <defs
   class="ClipPathGroup"
   id="defs8">
  <clipPath
   id="presentation_clip_path"
   clipPathUnits="userSpaceOnUse">
   <rect
   x="0"
   y="0"
   width="21000"
   height="29700"
   id="rect2" />
  </clipPath>
  <clipPath
   id="presentation_clip_path_shrink"
   clipPathUnits="userSpaceOnUse">
   <rect
   x="21"
   y="29"
   width="20958"
   height="29641"
   id="rect5" />
  </clipPath>
 </defs>
 <defs
   class="TextShapeIndex"
   id="defs12">
  <g
   ooo:slide="id1"
   ooo:id-list="id3 id4 id5 id6 id7 id8 id9 id10 id11 id12 id13 id14"
   id="g10" />
 </defs>
 <defs
   class="EmbeddedBulletChars"
   id="defs44">
  <g
   id="bullet-char-template-57356"
   transform="matrix(4.8828125e-4,0,0,-4.8828125e-4,0,0)">
   <path
   d="M 580,1141 1163,571 580,0 -4,571 Z"
   id="path14" />
  </g>
  <g
   id="bullet-char-template-57354"
   transform="matrix(4.8828125e-4,0,0,-4.8828125e-4,0,0)">
   <path
   d="M 8,1128 H 1137 V 0 H 8 Z"
   id="path17" />
  </g>
  <g
   id="bullet-char-template-10146"
   transform="matrix(4.8828125e-4,0,0,-4.8828125e-4,0,0)">
   <path
   d="M 174,0 602,739 174,1481 1456,739 Z M 1358,739 309,1346 659,739 Z"
   id="path20" />
  </g>
  <g
   id="bullet-char-template-10132"
   transform="matrix(4.8828125e-4,0,0,-4.8828125e-4,0,0)">
   <path
   d="M 2015,739 1276,0 H 717 l 543,543 H 174 v 393 h 1086 l -543,545 h 557 z"
   id="path23" />
  </g>
  <g
   id="bullet-char-template-10007"
   transform="matrix(4.8828125e-4,0,0,-4.8828125e-4,0,0)">
   <path
   d="m 0,-2 c -7,16 -16,29 -25,39 l 381,530 c -94,256 -141,385 -141,387 0,25 13,38 40,38 9,0 21,-2 34,-5 21,4 42,12 65,25 l 27,-13 111,-251 280,301 64,-25 24,25 c 21,-10 41,-24 62,-43 C 886,937 835,863 770,784 769,783 710,716 594,584 L 774,223 c 0,-27 -21,-55 -63,-84 l 16,-20 C 717,90 699,76 672,76 641,76 570,178 457,381 L 164,-76 c -22,-34 -53,-51 -92,-51 -42,0 -63,17 -64,51 -7,9 -10,24 -10,44 0,9 1,19 2,30 z"
   id="path26" />
  </g>
  <g
   id="bullet-char-template-10004"
   transform="matrix(4.8828125e-4,0,0,-4.8828125e-4,0,0)">
   <path
   d="M 285,-33 C 182,-33 111,30 74,156 52,228 41,333 41,471 c 0,78 14,145 41,201 34,71 87,106 158,106 53,0 88,-31 106,-94 l 23,-176 c 8,-64 28,-97 59,-98 l 735,706 c 11,11 33,17 66,17 42,0 63,-15 63,-46 V 965 c 0,-36 -10,-64 -30,-84 L 442,47 C 390,-6 338,-33 285,-33 Z"
   id="path29" />
  </g>
  <g
   id="bullet-char-template-9679"
   transform="matrix(4.8828125e-4,0,0,-4.8828125e-4,0,0)">
   <path
   d="M 813,0 C 632,0 489,54 383,161 276,268 223,411 223,592 c 0,181 53,324 160,431 106,107 249,161 430,161 179,0 323,-54 432,-161 108,-107 162,-251 162,-431 0,-180 -54,-324 -162,-431 C 1136,54 992,0 813,0 Z"
   id="path32" />
  </g>
  <g
   id="bullet-char-template-8226"
   transform="matrix(4.8828125e-4,0,0,-4.8828125e-4,0,0)">
   <path
   d="m 346,457 c -73,0 -137,26 -191,78 -54,51 -81,114 -81,188 0,73 27,136 81,188 54,52 118,78 191,78 73,0 134,-26 185,-79 51,-51 77,-114 77,-187 0,-75 -25,-137 -76,-188 -50,-52 -112,-78 -186,-78 z"
   id="path35" />
  </g>
  <g
   id="bullet-char-template-8211"
   transform="matrix(4.8828125e-4,0,0,-4.8828125e-4,0,0)">
   <path
   d="M -4,459 H 1135 V 606 H -4 Z"
   id="path38" />
  </g>
  <g
   id="bullet-char-template-61548"
   transform="matrix(4.8828125e-4,0,0,-4.8828125e-4,0,0)">
   <path
   d="m 173,740 c 0,163 58,303 173,419 116,115 255,173 419,173 163,0 302,-58 418,-173 116,-116 174,-256 174,-419 0,-163 -58,-303 -174,-418 C 1067,206 928,148 765,148 601,148 462,206 346,322 231,437 173,577 173,740 Z"
   id="path41" />
  </g>
 </defs>
 <g
   id="g49"
   transform="translate(5878.8513,-4671.1111)">
  <g
   id="id2"
   class="Master_Slide">
   <g
   id="bg-id2"
   class="Background" />
   <g
   id="bo-id2"
   class="BackgroundObjects" />
  </g>
 </g>
 
<g
   id="g145"
   transform="translate(25685.625,1871.9828)"><path
     style="fill:#a0a0a0;stroke:none;stroke-width:1496.77"
     d="m -19353.062,-578.44941 c -403.741,-139.05804 -563.821,-713.57079 -289.625,-1039.43479 75.074,-89.2201 226.617,-189.2187 336.763,-222.2192 170.105,-50.9648 235.985,-44.2 437.455,44.92 560.158,247.7845 532.212,966.42717 -47.182,1213.30369 -200.281,85.33855 -199.614,85.33331 -437.411,3.4303 z"
     id="path108" /><path
     style="fill:#a0a0a0;stroke:none;stroke-width:1496.77"
     d="m -22524.561,51.788871 c -176.82,-162.043241 -198.106,-209.305601 -198.106,-439.877091 0,-318.29941 125.691,-525.7293 383.949,-633.63618 261.805,-109.3892 521.823,-50.755 739.288,166.71024 142.899,142.89891 176.138,217.67053 176.138,396.21872 0,432.772814 -257.665,692.13409 -687.609,692.13409 -171.489,0 -256.054,-37.11459 -413.66,-181.549779 z"
     id="path110" /><path
     style="fill:#a0a0a0;stroke:none;stroke-width:1496.77"
     d="m -24558.059,2328.4132 c -298.481,-162.2327 -425.37,-547.6203 -280.69,-852.5108 366.693,-772.74686 1526.994,-288.9107 1209.58,504.385 -147.765,369.2998 -587.042,533.9305 -928.89,348.1258 z"
     id="path112" /><path
     style="fill:#a0a0a0;stroke:none;stroke-width:1496.77"
     d="m -25268.381,5305.4868 c -468.418,-212.8512 -562.324,-795.8775 -180.004,-1117.5785 355.593,-299.2123 924.036,-117.0223 1060.978,340.0512 145.623,486.0435 -421.307,986.4024 -880.974,777.5273 z"
     id="path114" /><path
     style="fill:#a0a0a0;stroke:none;stroke-width:1496.77"
     d="m -24610.85,8173.7077 c -112.428,-75.5256 -208.011,-200.8185 -254.125,-333.1141 -67.141,-192.6201 -64.152,-234.128 32.619,-452.8939 242.006,-547.0949 952.167,-552.0016 1192.698,-8.241 91.914,207.7865 95.393,256.1127 32.619,453.0357 -135.24,424.2462 -629.906,592.392 -1003.811,341.2133 z"
     id="path116" /><path
     style="fill:#a0a0a0;stroke:none;stroke-width:1496.77"
     d="m -22415.136,10365.307 c -419.039,-255.503 -436.683,-796.2405 -36.259,-1111.2143 274.086,-215.5962 753.218,-108.9287 941.361,209.5728 341.97,578.9075 -332.487,1250.7855 -905.102,901.6415 z"
     id="path118" /><path
     style="fill:#a0a0a0;stroke:none;stroke-width:1496.77"
     d="m -19385.915,11189.381 c -358.8,-156.221 -498.828,-574.325 -312.818,-934.029 160.633,-310.6293 672.907,-421.8379 947.652,-205.724 167.467,131.73 297.789,366.795 297.789,537.127 0,197.887 -179.612,476.571 -374.52,581.102 -212.385,113.903 -335.067,118.634 -558.103,21.524 z"
     id="path120" /><path
     style="fill:#a0a0a0;stroke:none;stroke-width:1496.77"
     d="m -16487.7,10372.321 c -194.908,-104.53 -374.52,-383.215 -374.52,-581.1014 0,-170.3326 130.322,-405.3977 297.789,-537.1269 274.745,-216.1143 787.019,-104.9057 947.652,205.7241 181.653,351.2767 56.069,750.4892 -292.848,930.9202 -201.176,104.033 -359.137,99.001 -578.073,-18.416 z"
     id="path123" /><path
     style="fill:#a0a0a0;stroke:none;stroke-width:1496.77"
     d="m -14475.149,8095.5667 c -175.372,-175.3708 -212.47,-248.5313 -211.825,-417.7297 1.021,-268.0655 92.122,-439.333 312.789,-588.0404 642.064,-432.6866 1357.9,459.5847 809.039,1008.4458 -122.07,122.0693 -219.58,164.0187 -427.755,184.0217 -258.027,24.7933 -278.8,16.7513 -482.248,-186.6974 z"
     id="path125" /><path
     style="fill:#a0a0a0;stroke:none;stroke-width:1496.77"
     d="m -13494.453,5305.9477 c -238.01,-108.8422 -354.303,-268.715 -383.428,-527.1145 -69.157,-613.5558 606.823,-969.9162 1069.404,-563.7647 554.704,487.036 -17.297,1396.6656 -685.976,1090.8792 z"
     id="path127" /><path
     style="fill:#a0a0a0;stroke:none;stroke-width:1496.77"
     d="m -14289.988,2360.0401 c -58.339,-25.6897 -165.737,-110.9067 -238.661,-189.3707 -107.448,-115.611 -132.589,-196.9688 -132.589,-429.0658 0,-250.1233 21.017,-307.421 165.915,-452.3184 230.09,-230.0904 556.262,-266.5879 814.473,-91.136 246.153,167.259 328.399,336.8278 300.452,619.4533 -31.614,319.7132 -254.244,541.2835 -571.665,568.9433 -127.52,11.112 -279.586,-0.8149 -337.925,-26.5057 z"
     id="path129" /><path
     style="fill:#333333;stroke:none;stroke-width:1496.77"
     d="m -16586.093,101.82325 c -325.373,-273.7834 -351.647,-686.41272 -62.14,-975.91922 286.41,-286.41023 710.709,-262.82953 977.581,54.32976 104.729,124.46402 134.325,218.33398 134.325,426.04903 0,232.2652 -23.113,289.5259 -180.322,446.734405 -157.208,157.208505 -214.469,180.321425 -446.734,180.321425 -206.217,0 -301.728,-29.71586 -422.71,-131.5154 z"
     id="path131" /></g></svg>
