<?xml version="1.0" encoding="UTF-8" standalone="no"?>
<svg
   xmlns:ooo="http://xml.openoffice.org/svg/export"
   xmlns:dc="http://purl.org/dc/elements/1.1/"
   xmlns:cc="http://creativecommons.org/ns#"
   xmlns:rdf="http://www.w3.org/1999/02/22-rdf-syntax-ns#"
   xmlns:svg="http://www.w3.org/2000/svg"
   xmlns="http://www.w3.org/2000/svg"
   xmlns:sodipodi="http://sodipodi.sourceforge.net/DTD/sodipodi-0.dtd"
   xmlns:inkscape="http://www.inkscape.org/namespaces/inkscape"
   version="1.2"
   width="160.59486mm"
   height="193.02872mm"
   viewBox="0 0 16059.486 19302.872"
   preserveAspectRatio="xMidYMid"
   fill-rule="evenodd"
   stroke-width="28.222"
   stroke-linejoin="round"
   xml:space="preserve"
   id="svg142"
   sodipodi:docname="spinner.svg"
   inkscape:version="1.0.2 (1.0.2+r75+1)"><metadata
   id="metadata146"><rdf:RDF><cc:Work
       rdf:about=""><dc:format>image/svg+xml</dc:format><dc:type
         rdf:resource="http://purl.org/dc/dcmitype/StillImage" /><dc:title></dc:title></cc:Work></rdf:RDF></metadata><sodipodi:namedview
   pagecolor="#ffffff"
   bordercolor="#666666"
   borderopacity="1"
   objecttolerance="10"
   gridtolerance="10"
   guidetolerance="10"
   inkscape:pageopacity="0"
   inkscape:pageshadow="2"
   inkscape:window-width="1366"
   inkscape:window-height="714"
   id="namedview144"
   showgrid="false"
   fit-margin-top="0"
   fit-margin-left="0"
   fit-margin-right="0"
   fit-margin-bottom="0"
   inkscape:zoom="0.49887767"
   inkscape:cx="312.22901"
   inkscape:cy="467.78924"
   inkscape:window-x="0"
   inkscape:window-y="25"
   inkscape:window-maximized="1"
   inkscape:current-layer="svg142" />
 <defs
   class="ClipPathGroup"
   id="defs8">
  <clipPath
   id="presentation_clip_path"
   clipPathUnits="userSpaceOnUse">
   <rect
   x="0"
   y="0"
   width="21000"
   height="29700"
   id="rect2" />
  </clipPath>
  <clipPath
   id="presentation_clip_path_shrink"
   clipPathUnits="userSpaceOnUse">
   <rect
   x="21"
   y="29"
   width="20958"
   height="29641"
   id="rect5" />
  </clipPath>
 </defs>
 <defs
   class="TextShapeIndex"
   id="defs12">
  <g
   ooo:slide="id1"
   ooo:id-list="id3 id4 id5 id6 id7 id8 id9 id10 id11"
   id="g10" />
 </defs>
 <defs
   class="EmbeddedBulletChars"
   id="defs44">
  <g
   id="bullet-char-template-57356"
   transform="matrix(4.8828125e-4,0,0,-4.8828125e-4,0,0)">
   <path
   d="M 580,1141 1163,571 580,0 -4,571 Z"
   id="path14" />
  </g>
  <g
   id="bullet-char-template-57354"
   transform="matrix(4.8828125e-4,0,0,-4.8828125e-4,0,0)">
   <path
   d="M 8,1128 H 1137 V 0 H 8 Z"
   id="path17" />
  </g>
  <g
   id="bullet-char-template-10146"
   transform="matrix(4.8828125e-4,0,0,-4.8828125e-4,0,0)">
   <path
   d="M 174,0 602,739 174,1481 1456,739 Z M 1358,739 309,1346 659,739 Z"
   id="path20" />
  </g>
  <g
   id="bullet-char-template-10132"
   transform="matrix(4.8828125e-4,0,0,-4.8828125e-4,0,0)">
   <path
   d="M 2015,739 1276,0 H 717 l 543,543 H 174 v 393 h 1086 l -543,545 h 557 z"
   id="path23" />
  </g>
  <g
   id="bullet-char-template-10007"
   transform="matrix(4.8828125e-4,0,0,-4.8828125e-4,0,0)">
   <path
   d="m 0,-2 c -7,16 -16,29 -25,39 l 381,530 c -94,256 -141,385 -141,387 0,25 13,38 40,38 9,0 21,-2 34,-5 21,4 42,12 65,25 l 27,-13 111,-251 280,301 64,-25 24,25 c 21,-10 41,-24 62,-43 C 886,937 835,863 770,784 769,783 710,716 594,584 L 774,223 c 0,-27 -21,-55 -63,-84 l 16,-20 C 717,90 699,76 672,76 641,76 570,178 457,381 L 164,-76 c -22,-34 -53,-51 -92,-51 -42,0 -63,17 -64,51 -7,9 -10,24 -10,44 0,9 1,19 2,30 z"
   id="path26" />
  </g>
  <g
   id="bullet-char-template-10004"
   transform="matrix(4.8828125e-4,0,0,-4.8828125e-4,0,0)">
   <path
   d="M 285,-33 C 182,-33 111,30 74,156 52,228 41,333 41,471 c 0,78 14,145 41,201 34,71 87,106 158,106 53,0 88,-31 106,-94 l 23,-176 c 8,-64 28,-97 59,-98 l 735,706 c 11,11 33,17 66,17 42,0 63,-15 63,-46 V 965 c 0,-36 -10,-64 -30,-84 L 442,47 C 390,-6 338,-33 285,-33 Z"
   id="path29" />
  </g>
  <g
   id="bullet-char-template-9679"
   transform="matrix(4.8828125e-4,0,0,-4.8828125e-4,0,0)">
   <path
   d="M 813,0 C 632,0 489,54 383,161 276,268 223,411 223,592 c 0,181 53,324 160,431 106,107 249,161 430,161 179,0 323,-54 432,-161 108,-107 162,-251 162,-431 0,-180 -54,-324 -162,-431 C 1136,54 992,0 813,0 Z"
   id="path32" />
  </g>
  <g
   id="bullet-char-template-8226"
   transform="matrix(4.8828125e-4,0,0,-4.8828125e-4,0,0)">
   <path
   d="m 346,457 c -73,0 -137,26 -191,78 -54,51 -81,114 -81,188 0,73 27,136 81,188 54,52 118,78 191,78 73,0 134,-26 185,-79 51,-51 77,-114 77,-187 0,-75 -25,-137 -76,-188 -50,-52 -112,-78 -186,-78 z"
   id="path35" />
  </g>
  <g
   id="bullet-char-template-8211"
   transform="matrix(4.8828125e-4,0,0,-4.8828125e-4,0,0)">
   <path
   d="M -4,459 H 1135 V 606 H -4 Z"
   id="path38" />
  </g>
  <g
   id="bullet-char-template-61548"
   transform="matrix(4.8828125e-4,0,0,-4.8828125e-4,0,0)">
   <path
   d="m 173,740 c 0,163 58,303 173,419 116,115 255,173 419,173 163,0 302,-58 418,-173 116,-116 174,-256 174,-419 0,-163 -58,-303 -174,-418 C 1067,206 928,148 765,148 601,148 462,206 346,322 231,437 173,577 173,740 Z"
   id="path41" />
  </g>
 </defs>
 <g
   id="g49"
   transform="translate(-2238.9408,-2473.0763)">
  <g
   id="id2"
   class="Master_Slide">
   <g
   id="bg-id2"
   class="Background" />
   <g
   id="bo-id2"
   class="BackgroundObjects" />
  </g>
 </g>
 <g
   class="SlideGroup"
   id="g140"
   transform="matrix(0.94316542,0,0,1.0012786,-1637.2305,-2489.0675)">
  <g
   id="g138">
   <g
   id="container-id1">
    <g
   id="id1"
   class="Slide"
   clip-path="url(#presentation_clip_path)">
     <g
   class="Page"
   id="g134">
      <g
   class="com.sun.star.drawing.CustomShape"
   id="g58">
       <g
   id="id3">
        <rect
   class="BoundingBox"
   stroke="none"
   fill="none"
   x="2999"
   y="21499"
   width="253"
   height="253"
   id="rect51" />
        <path
   fill="#729fcf"
   stroke="none"
   d="m 3125,21750 h -125 v -250 h 250 v 250 z"
   id="path53" />
        <path
   fill="none"
   stroke="#3465a4"
   d="m 3125,21750 h -125 v -250 h 250 v 250 z"
   id="path55" />
       </g>
      </g>
      <g
   class="Group"
   id="g132">
       <g
   class="com.sun.star.drawing.CustomShape"
   id="g67">
        <g
   id="id4">
         <rect
   class="BoundingBox"
   stroke="none"
   fill="none"
   x="11997"
   y="13749"
   width="4254"
   height="4254"
   id="rect60" />
         <path
   fill="#b2b2b2"
   stroke="none"
   d="m 16249,15876 c 0,373 -98,739 -285,1062 -186,323 -455,592 -778,778 -323,187 -689,285 -1062,285 -374,0 -740,-98 -1063,-285 -323,-186 -592,-455 -778,-778 -187,-323 -285,-689 -285,-1062 0,-374 98,-740 285,-1063 186,-323 455,-592 778,-778 323,-187 689,-285 1062,-285 374,0 740,98 1063,285 323,186 592,455 778,778 187,323 285,689 285,1062 z"
   id="path62" />
         <path
   fill="none"
   stroke="#3465a4"
   d="m 16249,15876 c 0,373 -98,739 -285,1062 -186,323 -455,592 -778,778 -323,187 -689,285 -1062,285 -374,0 -740,-98 -1063,-285 -323,-186 -592,-455 -778,-778 -187,-323 -285,-689 -285,-1062 0,-374 98,-740 285,-1063 186,-323 455,-592 778,-778 323,-187 689,-285 1062,-285 374,0 740,98 1063,285 323,186 592,455 778,778 187,323 285,689 285,1062 z"
   id="path64" />
        </g>
       </g>
       <g
   class="com.sun.star.drawing.CustomShape"
   id="g76">
        <g
   id="id5">
         <rect
   class="BoundingBox"
   stroke="none"
   fill="none"
   x="7188"
   y="15220"
   width="4254"
   height="4254"
   id="rect69" />
         <path
   fill="#999999"
   stroke="none"
   d="m 11440,17347 c 0,373 -98,739 -285,1062 -186,323 -455,592 -778,778 -323,187 -689,285 -1062,285 -374,0 -740,-98 -1063,-285 -323,-186 -592,-455 -778,-778 -187,-323 -285,-689 -285,-1062 0,-374 98,-740 285,-1063 186,-323 455,-592 778,-778 323,-187 689,-285 1062,-285 374,0 740,98 1063,285 323,186 592,455 778,778 187,323 285,689 285,1062 z"
   id="path71" />
         <path
   fill="none"
   stroke="#3465a4"
   d="m 11440,17347 c 0,373 -98,739 -285,1062 -186,323 -455,592 -778,778 -323,187 -689,285 -1062,285 -374,0 -740,-98 -1063,-285 -323,-186 -592,-455 -778,-778 -187,-323 -285,-689 -285,-1062 0,-374 98,-740 285,-1063 186,-323 455,-592 778,-778 323,-187 689,-285 1062,-285 374,0 740,98 1063,285 323,186 592,455 778,778 187,323 285,689 285,1062 z"
   id="path73" />
        </g>
       </g>
       <g
   class="com.sun.star.drawing.CustomShape"
   id="g85">
        <g
   id="id6">
         <rect
   class="BoundingBox"
   stroke="none"
   fill="none"
   x="2999"
   y="12499"
   width="4254"
   height="4254"
   id="rect78" />
         <path
   fill="#808080"
   stroke="none"
   d="m 7251,14626 c 0,373 -98,739 -285,1062 -186,323 -455,592 -778,778 -323,187 -689,285 -1062,285 -374,0 -740,-98 -1063,-285 -323,-186 -592,-455 -778,-778 -187,-323 -285,-689 -285,-1062 0,-374 98,-740 285,-1063 186,-323 455,-592 778,-778 323,-187 689,-285 1062,-285 374,0 740,98 1063,285 323,186 592,455 778,778 187,323 285,689 285,1062 z"
   id="path80" />
         <path
   fill="none"
   stroke="#3465a4"
   d="m 7251,14626 c 0,373 -98,739 -285,1062 -186,323 -455,592 -778,778 -323,187 -689,285 -1062,285 -374,0 -740,-98 -1063,-285 -323,-186 -592,-455 -778,-778 -187,-323 -285,-689 -285,-1062 0,-374 98,-740 285,-1063 186,-323 455,-592 778,-778 323,-187 689,-285 1062,-285 374,0 740,98 1063,285 323,186 592,455 778,778 187,323 285,689 285,1062 z"
   id="path82" />
        </g>
       </g>
       <g
   class="com.sun.star.drawing.CustomShape"
   id="g94">
        <g
   id="id7">
         <rect
   class="BoundingBox"
   stroke="none"
   fill="none"
   x="1749"
   y="7801"
   width="4254"
   height="4254"
   id="rect87" />
         <path
   fill="#666666"
   stroke="none"
   d="m 6001,9928 c 0,373 -98,739 -285,1062 -186,323 -455,592 -778,778 -323,187 -689,285 -1062,285 -374,0 -740,-98 -1063,-285 -323,-186 -592,-455 -778,-778 -187,-323 -285,-689 -285,-1062 0,-374 98,-740 285,-1063 186,-323 455,-592 778,-778 323,-187 689,-285 1062,-285 374,0 740,98 1063,285 323,186 592,455 778,778 187,323 285,689 285,1062 z"
   id="path89" />
         <path
   fill="none"
   stroke="#3465a4"
   d="m 6001,9928 c 0,373 -98,739 -285,1062 -186,323 -455,592 -778,778 -323,187 -689,285 -1062,285 -374,0 -740,-98 -1063,-285 -323,-186 -592,-455 -778,-778 -187,-323 -285,-689 -285,-1062 0,-374 98,-740 285,-1063 186,-323 455,-592 778,-778 323,-187 689,-285 1062,-285 374,0 740,98 1063,285 323,186 592,455 778,778 187,323 285,689 285,1062 z"
   id="path91" />
        </g>
       </g>
       <g
   class="com.sun.star.drawing.CustomShape"
   id="g103">
        <g
   id="id8">
         <rect
   class="BoundingBox"
   stroke="none"
   fill="none"
   x="4247"
   y="3749"
   width="4254"
   height="4254"
   id="rect96" />
         <path
   fill="#333333"
   stroke="none"
   d="m 8499,5876 c 0,373 -98,739 -285,1062 -186,323 -455,592 -778,778 -323,187 -689,285 -1062,285 -374,0 -740,-98 -1063,-285 -323,-186 -592,-455 -778,-778 -187,-323 -285,-689 -285,-1062 0,-374 98,-740 285,-1063 186,-323 455,-592 778,-778 323,-187 689,-285 1062,-285 374,0 740,98 1063,285 323,186 592,455 778,778 187,323 285,689 285,1062 z"
   id="path98" />
         <path
   fill="none"
   stroke="#3465a4"
   d="m 8499,5876 c 0,373 -98,739 -285,1062 -186,323 -455,592 -778,778 -323,187 -689,285 -1062,285 -374,0 -740,-98 -1063,-285 -323,-186 -592,-455 -778,-778 -187,-323 -285,-689 -285,-1062 0,-374 98,-740 285,-1063 186,-323 455,-592 778,-778 323,-187 689,-285 1062,-285 374,0 740,98 1063,285 323,186 592,455 778,778 187,323 285,689 285,1062 z"
   id="path100" />
        </g>
       </g>
       <g
   class="com.sun.star.drawing.CustomShape"
   id="g112">
        <g
   id="id9">
         <rect
   class="BoundingBox"
   stroke="none"
   fill="none"
   x="8997"
   y="2499"
   width="4254"
   height="4254"
   id="rect105" />
         <path
   fill="#1c1c1c"
   stroke="none"
   d="m 13249,4626 c 0,373 -98,739 -285,1062 -186,323 -455,592 -778,778 -323,187 -689,285 -1062,285 -374,0 -740,-98 -1063,-285 -323,-186 -592,-455 -778,-778 -187,-323 -285,-689 -285,-1062 0,-374 98,-740 285,-1063 186,-323 455,-592 778,-778 323,-187 689,-285 1062,-285 374,0 740,98 1063,285 323,186 592,455 778,778 187,323 285,689 285,1062 z"
   id="path107" />
         <path
   fill="none"
   stroke="#3465a4"
   d="m 13249,4626 c 0,373 -98,739 -285,1062 -186,323 -455,592 -778,778 -323,187 -689,285 -1062,285 -374,0 -740,-98 -1063,-285 -323,-186 -592,-455 -778,-778 -187,-323 -285,-689 -285,-1062 0,-374 98,-740 285,-1063 186,-323 455,-592 778,-778 323,-187 689,-285 1062,-285 374,0 740,98 1063,285 323,186 592,455 778,778 187,323 285,689 285,1062 z"
   id="path109" />
        </g>
       </g>
       <g
   class="com.sun.star.drawing.CustomShape"
   id="g121">
        <g
   id="id10">
         <rect
   class="BoundingBox"
   stroke="none"
   fill="none"
   x="13247"
   y="4749"
   width="4254"
   height="4254"
   id="rect114" />
         <path
   fill="#111111"
   stroke="none"
   d="m 17499,6876 c 0,373 -98,739 -285,1062 -186,323 -455,592 -778,778 -323,187 -689,285 -1062,285 -374,0 -740,-98 -1063,-285 -323,-186 -592,-455 -778,-778 -187,-323 -285,-689 -285,-1062 0,-374 98,-740 285,-1063 186,-323 455,-592 778,-778 323,-187 689,-285 1063,-285 373,0 739,98 1062,285 323,186 592,455 778,778 187,323 285,689 285,1062 z"
   id="path116" />
         <path
   fill="none"
   stroke="#3465a4"
   d="m 17499,6876 c 0,373 -98,739 -285,1062 -186,323 -455,592 -778,778 -323,187 -689,285 -1062,285 -374,0 -740,-98 -1063,-285 -323,-186 -592,-455 -778,-778 -187,-323 -285,-689 -285,-1062 0,-374 98,-740 285,-1063 186,-323 455,-592 778,-778 323,-187 689,-285 1063,-285 373,0 739,98 1062,285 323,186 592,455 778,778 187,323 285,689 285,1062 z"
   id="path118" />
        </g>
       </g>
       <g
   class="com.sun.star.drawing.CustomShape"
   id="g130">
        <g
   id="id11">
         <rect
   class="BoundingBox"
   stroke="none"
   fill="none"
   x="14497"
   y="9499"
   width="4254"
   height="4254"
   id="rect123" />
         <path
   fill="#000000"
   stroke="none"
   d="m 18749,11626 c 0,373 -98,739 -285,1062 -186,323 -455,592 -778,778 -323,187 -689,285 -1062,285 -374,0 -740,-98 -1063,-285 -323,-186 -592,-455 -778,-778 -187,-323 -285,-689 -285,-1062 0,-374 98,-740 285,-1063 186,-323 455,-592 778,-778 323,-187 689,-285 1063,-285 373,0 739,98 1062,285 323,186 592,455 778,778 187,323 285,689 285,1062 z"
   id="path125" />
         <path
   fill="none"
   stroke="#3465a4"
   d="m 18749,11626 c 0,373 -98,739 -285,1062 -186,323 -455,592 -778,778 -323,187 -689,285 -1062,285 -374,0 -740,-98 -1063,-285 -323,-186 -592,-455 -778,-778 -187,-323 -285,-689 -285,-1062 0,-374 98,-740 285,-1063 186,-323 455,-592 778,-778 323,-187 689,-285 1063,-285 373,0 739,98 1062,285 323,186 592,455 778,778 187,323 285,689 285,1062 z"
   id="path127" />
        </g>
       </g>
      </g>
     </g>
    </g>
   </g>
  </g>
 </g>
</svg>
